# xmcd
#
# Track frame offsets:
#	150
#	4625
#	12429
#	36157
#	63295
#	94519
#	114044
#	130734
#	151155
#	174325
#	194939
#	217876
#	245580
#	268696
#
# Disc length: 3692 seconds
#
# Revision: 0
# Processed by: cddbd v1.4PL0 Copyright (c) Steve Scherf et al.
# Submitted via: EasyCDDAExtractor 4.6.9.1
#
DISCID=b00e6a0e
DTITLE=IATITAIA BLUES BAND - JUKE JOINT
DYEAR=1900
DGENRE=BLUES
TTITLE0=JUKE
TTITLE1=JOINT
TTITLE2=BUY THE NEXT ROUND
TTITLE3=HARD WAY/RUMBA BLUES
TTITLE4=THE THRILL IS GONE
TTITLE5=ALL YOUR LOVE
TTITLE6=YOU DON'T KNOW ME
TTITLE7=I'M ONLY A BLUESMAN
TTITLE8=SAME OLD BLUES
TTITLE9=CALEDONIA
TTITLE10=CHITLINS CON CARNE
TTITLE11=YOU GOT TO MOVE
TTITLE12=CONGO SQUARE
TTITLE13=CLOSING TIME BOOGIE
EXTD=
EXTT0=
EXTT1=
EXTT2=
EXTT3=
EXTT4=
EXTT5=
EXTT6=
EXTT7=
EXTT8=
EXTT9=
EXTT10=
EXTT11=
EXTT12=
EXTT13=
PLAYORDER=
